<svg width="149" height="151" viewBox="0 0 149 151" fill="none" xmlns="http://www.w3.org/2000/svg">
<path d="M73.9237 20.7663L72.9502 26.2608C72.9177 26.4446 72.8639 26.5569 72.789 26.5978C72.7295 26.6279 72.6275 26.6301 72.4831 26.6045L70.5925 26.2696C70.4613 26.2464 70.3663 26.2092 70.3076 26.1582C70.2513 26.0941 70.2394 25.9701 70.2719 25.7863L72.8154 11.4298C72.8433 11.2723 72.8947 11.1731 72.9697 11.1322C73.0578 11.0936 73.1543 11.0836 73.2593 11.1023L77.198 11.8C77.9201 11.928 78.5603 12.1362 79.1185 12.4247C79.6899 12.7154 80.1519 13.0884 80.5046 13.5436C80.8572 13.9988 81.094 14.535 81.2148 15.1522C81.3511 15.7586 81.3495 16.4557 81.21 17.2434C81.075 18.0049 80.8251 18.6512 80.4602 19.1823C80.1084 19.7158 79.6744 20.1399 79.1583 20.4547C78.6552 20.7718 78.0766 20.9808 77.4223 21.0815C76.7835 21.1714 76.1096 21.1536 75.4007 21.028L73.9237 20.7663ZM75.1308 13.9524L74.3563 18.3244L75.656 18.5546C76.4438 18.6942 77.0791 18.6239 77.562 18.3439C78.045 18.0638 78.3562 17.53 78.4958 16.7422C78.619 16.0464 78.5414 15.491 78.2629 15.076C77.9998 14.6503 77.5925 14.3886 77.0411 14.2909L75.1308 13.9524Z" fill="black"/>
<path d="M89.211 32.8396C89.0693 32.7654 88.981 32.7041 88.9461 32.6557C88.9292 32.6017 88.9253 32.4943 88.9342 32.3335L89.0623 25.9664L87.4323 25.1129L84.8346 30.0739C84.748 30.2393 84.6687 30.3332 84.5967 30.3558C84.5309 30.3664 84.4331 30.3378 84.3031 30.2697L82.5845 29.3698C82.4664 29.308 82.387 29.2439 82.3465 29.1775C82.3122 29.0993 82.3384 28.9776 82.4249 28.8122L89.1882 15.8958C89.2624 15.754 89.3415 15.675 89.4253 15.6587C89.5209 15.6485 89.6159 15.6682 89.7104 15.7177L93.2717 17.5824C93.9332 17.9288 94.4864 18.3238 94.9314 18.7675C95.3881 19.2174 95.7158 19.7126 95.9144 20.253C96.1131 20.7935 96.1767 21.3762 96.1054 22.001C96.052 22.6203 95.8398 23.2843 95.4687 23.993C95.0234 24.8435 94.4599 25.474 93.7783 25.8847C93.1029 26.2836 92.3743 26.4966 91.5925 26.5237L91.5961 33.5015C91.5978 33.7282 91.5683 33.8707 91.5076 33.9293C91.4531 33.9759 91.3372 33.9529 91.16 33.8601L89.211 32.8396ZM90.6423 18.9825L88.5641 22.9513L89.7512 23.5729C90.46 23.944 91.0927 24.0721 91.6495 23.9573C92.2125 23.8307 92.6795 23.413 93.0506 22.7043C93.3846 22.0664 93.4756 21.5045 93.3237 21.0186C93.1898 20.5271 92.8748 20.1514 92.3787 19.8916L90.6423 18.9825Z" fill="black"/>
<path d="M102.41 42.8159C101.407 42.8899 100.479 42.7404 99.6254 42.3674C98.772 41.9944 97.9786 41.4114 97.2454 40.6185C96.4306 39.7374 95.8857 38.8339 95.6105 37.908C95.3542 36.9827 95.3051 36.0656 95.4633 35.1565C95.6403 34.2482 95.9907 33.3703 96.5145 32.5227C97.0571 31.6759 97.72 30.8904 98.5031 30.1662C99.2667 29.4601 100.091 28.879 100.977 28.423C101.873 27.9579 102.78 27.682 103.699 27.5953C104.627 27.4995 105.542 27.6155 106.445 27.9432C107.347 28.271 108.201 28.8705 109.007 29.7417C109.804 30.6032 110.325 31.501 110.572 32.4353C110.828 33.3606 110.872 34.2822 110.704 35.2003C110.546 36.1094 110.205 36.9877 109.681 37.8353C109.167 38.6926 108.523 39.4695 107.75 40.1658C106.88 40.9526 106.002 41.574 105.116 42.0301C104.24 42.477 103.338 42.739 102.41 42.8159ZM107.186 31.4255C106.716 30.9165 106.191 30.5846 105.612 30.4299C105.052 30.2759 104.468 30.2531 103.859 30.3614C103.26 30.4795 102.662 30.7061 102.064 31.0413C101.484 31.3772 100.94 31.7805 100.431 32.2512C99.9223 32.722 99.4728 33.2375 99.0829 33.7978C98.7119 34.3589 98.4441 34.9334 98.2796 35.5214C98.1242 36.1192 98.0964 36.7078 98.1964 37.2872C98.3055 37.8765 98.5954 38.4256 99.0661 38.9347C99.5278 39.4339 100.044 39.756 100.613 39.901C101.192 40.0557 101.781 40.074 102.38 39.9559C102.98 39.8378 103.574 39.6062 104.163 39.2613C104.761 38.9261 105.309 38.5277 105.809 38.066C106.298 37.6134 106.728 37.1065 107.099 36.5455C107.489 35.9852 107.766 35.411 107.931 34.823C108.095 34.235 108.128 33.6513 108.028 33.0718C107.937 32.4833 107.657 31.9346 107.186 31.4255Z" fill="black"/>
<path d="M105.35 50.8091C104.796 50.7349 104.311 50.4948 103.894 50.0887C103.483 49.6947 103.162 49.2573 102.931 48.7766C102.815 48.5363 102.703 48.2722 102.594 47.9842C102.479 47.7141 102.408 47.4893 102.381 47.31C102.359 47.1725 102.364 47.0742 102.394 47.015C102.437 46.9501 102.525 46.8858 102.657 46.8223L104.315 46.0251C104.483 45.9443 104.594 45.9132 104.648 45.9319C104.701 45.9506 104.747 46.0766 104.785 46.3098C104.857 46.6448 105.006 47.0467 105.231 47.5154C105.364 47.7918 105.585 47.9443 105.895 47.973C106.21 48.0137 106.693 47.8781 107.342 47.5661L116.967 42.9391C117.208 42.8236 117.38 42.874 117.484 43.0903L118.324 44.8388C118.445 45.0911 118.386 45.2751 118.146 45.3906L108.61 49.9743C108.045 50.2458 107.478 50.4665 106.909 50.6366C106.346 50.8187 105.826 50.8762 105.35 50.8091Z" fill="black"/>
<path d="M106.443 57.5189C106.384 57.2043 106.388 57.0069 106.454 56.9267C106.52 56.8465 106.717 56.7757 107.045 56.7144L120.787 54.1439C121.088 54.0875 121.283 54.0781 121.372 54.1158C121.462 54.1667 121.536 54.3428 121.592 54.6442L122.902 61.6428C122.943 61.8656 122.927 61.9975 122.854 62.0384C122.78 62.0793 122.664 62.1145 122.507 62.1439L120.974 62.4308C120.79 62.4651 120.662 62.4687 120.589 62.4417C120.529 62.4122 120.481 62.2991 120.444 62.1025L119.518 57.1485L115.782 57.8472L116.661 62.5457C116.7 62.7554 116.683 62.8807 116.609 62.9216C116.538 62.9756 116.424 63.0173 116.267 63.0468L114.733 63.3336C114.55 63.3679 114.42 63.365 114.345 63.3248C114.285 63.2953 114.238 63.1888 114.204 63.0054L113.325 58.3069L109.275 59.0644L110.239 64.2151C110.278 64.4248 110.267 64.5488 110.207 64.5873C110.148 64.6389 110.034 64.6806 109.864 64.7125L108.33 64.9993C108.16 65.0312 108.032 65.0348 107.946 65.0102C107.875 64.9963 107.821 64.8844 107.781 64.6747L106.443 57.5189Z" fill="black"/>
<path d="M106.639 79.3173C106.558 78.9165 106.505 78.4456 106.482 77.9047C106.458 77.377 106.492 76.7562 106.586 76.0423C106.736 74.9055 107.058 73.8855 107.554 72.9824C108.061 72.0943 108.702 71.3584 109.478 70.7747C110.268 70.1927 111.17 69.7736 112.186 69.5172C113.213 69.2758 114.321 69.2334 115.511 69.39C116.674 69.5431 117.714 69.8682 118.63 70.3654C119.558 70.8775 120.321 71.5159 120.92 72.2806C121.532 73.047 121.967 73.9247 122.227 74.9137C122.485 75.9159 122.54 76.9855 122.39 78.1224C122.312 78.7172 122.196 79.2871 122.044 79.8318C121.905 80.3783 121.731 80.88 121.523 81.3367C121.433 81.5131 121.341 81.5952 121.249 81.583C121.154 81.5841 121.041 81.5759 120.909 81.5585L119.209 81.2944C118.984 81.2648 118.865 81.1954 118.853 81.0862C118.84 80.9769 118.883 80.8077 118.98 80.5784C119.23 80.0062 119.413 79.4856 119.529 79.0167C119.656 78.5627 119.752 78.0845 119.818 77.5822C119.916 76.8419 119.872 76.1569 119.685 75.5273C119.511 74.9126 119.213 74.369 118.791 73.8965C118.382 73.4259 117.868 73.0355 117.25 72.7255C116.63 72.4288 115.93 72.2291 115.15 72.1264C114.384 72.0255 113.661 72.0514 112.982 72.2041C112.316 72.3585 111.717 72.6159 111.186 72.9763C110.667 73.3384 110.225 73.7846 109.86 74.3147C109.506 74.8598 109.25 75.4717 109.094 76.1504C108.944 76.7763 108.884 77.387 108.913 77.9825C108.955 78.5798 109.018 79.0723 109.102 79.4598C109.145 79.6404 109.144 79.7545 109.097 79.8021C109.064 79.8515 108.98 79.8741 108.846 79.87L107.048 79.7342C106.901 79.7283 106.805 79.6954 106.759 79.6356C106.713 79.5757 106.673 79.4696 106.639 79.3173Z" fill="black"/>
<path d="M114.406 92.6974L103.103 87.4056C102.958 87.3378 102.876 87.2623 102.856 87.1793C102.83 87.1084 102.845 87.0126 102.902 86.8918L103.733 85.1168C103.79 84.996 103.856 84.9167 103.933 84.879C104.004 84.8533 104.112 84.8744 104.256 84.9422L115.559 90.234L117.06 87.028C117.122 86.8952 117.192 86.8099 117.268 86.7721C117.339 86.7464 117.441 86.7647 117.574 86.8269L119.15 87.5647C119.391 87.6778 119.455 87.855 119.342 88.0965L115.17 97.0082C115.096 97.1651 115.021 97.2476 114.944 97.2556C114.873 97.2813 114.771 97.263 114.638 97.2008L113.062 96.463C112.929 96.4008 112.85 96.3343 112.824 96.2634C112.793 96.2045 112.814 96.0966 112.888 95.9396L114.406 92.6974Z" fill="black"/>
<path d="M98.178 103.485C98.2296 103.443 98.2887 103.42 98.3553 103.417C98.4303 103.425 98.489 103.455 98.5312 103.506L99.7974 105.054C99.8396 105.106 99.8527 105.164 99.8367 105.229C99.8292 105.304 99.7996 105.362 99.748 105.405L95.6919 108.722C95.63 108.773 95.5666 108.79 95.5019 108.774C95.4353 108.777 95.3809 108.753 95.3387 108.701L94.0725 107.153C94.0303 107.101 94.013 107.038 94.0205 106.963C94.0261 106.906 94.0599 106.853 94.1218 106.802L98.178 103.485Z" fill="black"/>
<path d="M68.704 109.65C69.054 109.438 69.4799 109.23 69.9817 109.027C70.4704 108.826 71.0667 108.65 71.7707 108.499C72.8917 108.258 73.9607 108.219 74.9778 108.382C75.9846 108.561 76.8933 108.918 77.7039 109.453C78.5172 110.001 79.2153 110.71 79.798 111.58C80.3704 112.466 80.7828 113.496 81.0352 114.669C81.2819 115.816 81.3251 116.904 81.1648 117.935C80.9943 118.98 80.6495 119.914 80.1305 120.735C79.6143 121.568 78.9341 122.274 78.0899 122.851C77.2327 123.431 76.2435 123.841 75.1225 124.083C74.5359 124.209 73.9605 124.292 73.3962 124.331C72.8347 124.384 72.3039 124.389 71.8038 124.346C71.6073 124.32 71.4992 124.262 71.4796 124.171C71.4469 124.082 71.4166 123.973 71.3885 123.842L71.0659 122.152C71.0183 121.931 71.0438 121.796 71.1425 121.747C71.2411 121.699 71.4148 121.682 71.6635 121.697C72.2865 121.74 72.8382 121.737 73.3187 121.688C73.789 121.655 74.2718 121.586 74.7671 121.479C75.4971 121.322 76.1273 121.05 76.6578 120.663C77.1781 120.292 77.5898 119.829 77.893 119.272C78.199 118.729 78.394 118.114 78.4783 117.428C78.5494 116.745 78.5023 116.018 78.3369 115.249C78.1743 114.493 77.907 113.821 77.5349 113.233C77.1657 112.657 76.7221 112.18 76.204 111.801C75.6888 111.434 75.12 111.168 74.4978 111.001C73.8654 110.851 73.2033 110.816 72.5114 110.897C71.8717 110.966 71.2763 111.115 70.7252 111.342C70.1769 111.583 69.7342 111.808 69.3973 112.017C69.2419 112.118 69.1339 112.155 69.0733 112.127C69.0156 112.112 68.9661 112.041 68.9251 111.914L68.4488 110.175C68.4049 110.034 68.4035 109.932 68.4444 109.869C68.4853 109.806 68.5719 109.732 68.704 109.65Z" fill="black"/>
<path d="M64.6483 109.069C64.9272 109.093 65.0541 109.251 65.0288 109.543L63.7691 124.089C63.7565 124.235 63.7218 124.326 63.6653 124.361C63.6075 124.409 63.5056 124.427 63.3595 124.415L61.3669 124.242C61.2208 124.23 61.1301 124.195 61.0949 124.138C61.0585 124.095 61.0466 124 61.0593 123.854L62.1394 111.381L57.3374 110.965C57.1913 110.952 57.0945 110.911 57.0472 110.84C56.9986 110.782 56.9807 110.68 56.9933 110.534L57.1417 108.82C57.1544 108.674 57.1902 108.57 57.249 108.508C57.3068 108.46 57.4087 108.442 57.5548 108.454L64.6483 109.069Z" fill="black"/>
<path d="M54.1342 107.266C54.274 107.31 54.3677 107.367 54.4152 107.438C54.4501 107.505 54.4434 107.615 54.3952 107.768L50.0015 121.691C49.9212 121.945 49.7539 122.032 49.4996 121.952L47.6686 121.374C47.4143 121.294 47.3273 121.127 47.4075 120.872L51.8013 106.949C51.8495 106.796 51.9134 106.705 51.993 106.674C52.0599 106.639 52.1633 106.644 52.3032 106.688L54.1342 107.266Z" fill="black"/>
<path d="M38.636 99.5008C39.0344 99.5932 39.4843 99.7416 39.9858 99.9458C40.4759 100.143 41.026 100.433 41.636 100.815C42.6074 101.424 43.4007 102.142 44.0157 102.968C44.6123 103.799 45.0145 104.689 45.2223 105.637C45.423 106.597 45.4286 107.592 45.2391 108.622C45.0312 109.656 44.6085 110.682 43.971 111.699C43.3477 112.693 42.6194 113.503 41.786 114.129C40.9342 114.76 40.0362 115.188 39.0917 115.414C38.1402 115.652 37.1607 115.683 36.1533 115.507C35.1345 115.325 34.1394 114.929 33.1679 114.32C32.6596 114.001 32.1895 113.659 31.7575 113.294C31.3185 112.94 30.9346 112.573 30.6059 112.194C30.4831 112.038 30.4465 111.921 30.4961 111.842C30.5344 111.756 30.589 111.656 30.6598 111.543L31.6074 110.107C31.7279 109.915 31.8403 109.836 31.9449 109.87C32.0494 109.905 32.1856 110.014 32.3535 110.198C32.7698 110.663 33.1671 111.046 33.5454 111.346C33.9054 111.651 34.3 111.937 34.7292 112.207C35.3618 112.603 36.0031 112.848 36.6531 112.941C37.2847 113.038 37.9031 112.993 38.5083 112.806C39.1064 112.63 39.675 112.325 40.2141 111.892C40.7419 111.452 41.2148 110.899 41.6327 110.232C42.0436 109.577 42.3208 108.909 42.4646 108.228C42.6013 107.558 42.6163 106.907 42.5099 106.273C42.3963 105.651 42.1746 105.064 41.8446 104.511C41.4964 103.962 41.0462 103.475 40.4942 103.05C39.9874 102.654 39.4572 102.345 38.9035 102.124C38.3427 101.914 37.8687 101.766 37.4816 101.681C37.2993 101.645 37.1962 101.596 37.1723 101.534C37.1413 101.483 37.1555 101.397 37.2151 101.277L38.0866 99.6992C38.1532 99.5679 38.2233 99.4938 38.2968 99.4769C38.3703 99.4601 38.4834 99.468 38.636 99.5008Z" fill="black"/>
<path d="M31.2788 90.4664C31.3718 90.5799 31.4206 90.6605 31.4253 90.7084C31.43 90.7562 31.4052 90.8627 31.3508 91.0278L29.1474 98.0282L30.7601 98.1035L34.5202 95.0243C34.644 94.9229 34.7476 94.8811 34.8311 94.8989C34.9146 94.9167 34.9986 94.9772 35.0831 95.0803L36.2996 96.5658C36.3925 96.6793 36.4394 96.7787 36.4404 96.8641C36.4329 96.9391 36.3673 97.0273 36.2435 97.1287L24.9478 106.379C24.7415 106.548 24.5538 106.529 24.3849 106.323L23.1684 104.837C22.9995 104.631 23.0181 104.443 23.2245 104.275L27.8046 100.524L20.1693 100.702C20.0755 100.692 20.0004 100.685 19.9441 100.679C19.8878 100.674 19.8217 100.624 19.7456 100.531L18.3264 98.7984C18.0308 98.4374 18.1006 98.2596 18.5359 98.265L26.4935 98.1335L29.3319 88.7519C29.4218 88.4197 29.5851 88.3981 29.8216 88.6869L31.2788 90.4664Z" fill="black"/>
<path d="M19.7126 80.1281C19.7273 80.1932 19.7209 80.2561 19.6936 80.3169C19.6533 80.3807 19.6006 80.4198 19.5355 80.4345L17.5843 80.8734C17.5193 80.888 17.4614 80.8737 17.4106 80.8304C17.3469 80.7901 17.3077 80.7374 17.2931 80.6724L16.1431 75.5601C16.1256 75.4821 16.1384 75.4177 16.1817 75.367C16.209 75.3061 16.2552 75.2684 16.3202 75.2538L18.2715 74.8149C18.3365 74.8003 18.4009 74.8131 18.4647 74.8534C18.5125 74.8837 18.5451 74.9378 18.5627 75.0159L19.7126 80.1281Z" fill="black"/>
<path d="M17 71.6189C13.5 41 34.5 16.5 65.0329 15.6411" stroke="black" stroke-width="2"/>
</svg>
